# xmcd
#
# Track frame offsets:
#	150
#	22990
#	41922
#	59049
#	81519
#	96068
#	114013
#	132173
#	145627
#	164990
#	187676
#	211981
#
# Disc length: 3221 seconds
#
# Revision: 1
# Processed by: cddbd v1.5.2PL0 Copyright (c) Steve Scherf et al.
# Submitted via: audiograbber 1.83.01
#
DISCID=a40c930c
DTITLE=Mike McClellan - If Only For A Moment
DYEAR=1900
DGENRE=
TTITLE0=Marking Time
TTITLE1=A Hand To Hold
TTITLE2=Thank God I've Got You
TTITLE3=Since You've Been Gone
TTITLE4=If Only For A Moment
TTITLE5=Throwing Away Good Love
TTITLE6=The Heart Of The Matter
TTITLE7=Extinct
TTITLE8=Undertow
TTITLE9=All I Can Stand
TTITLE10=Dig A Little Deeper
TTITLE11=Watergate Canal
EXTD=
EXTT0=
EXTT1=
EXTT2=
EXTT3=
EXTT4=
EXTT5=
EXTT6=
EXTT7=
EXTT8=
EXTT9=
EXTT10=
EXTT11=
PLAYORDER=
